<svg width="45" height="45" viewBox="0 0 45 45" fill="none" xmlns="http://www.w3.org/2000/svg">
<rect x="0.412109" y="0.311523" width="43.854" height="43.854" rx="21.927" fill="white"/>
<path fill-rule="evenodd" clip-rule="evenodd" d="M18.128 15.642C18.6684 15.632 19.208 15.6874 19.7351 15.807C20.1789 15.9039 20.6003 16.0842 20.9768 16.3383C21.3245 16.591 21.5996 16.9308 21.7745 17.3234C21.9756 17.8062 22.0726 18.326 22.0592 18.8489C22.082 19.4229 21.9354 19.991 21.6376 20.4824C21.3243 20.9464 20.8913 21.317 20.3844 21.5549C21.0723 21.7403 21.6714 22.1651 22.074 22.7528C22.4606 23.3755 22.6548 24.0984 22.6326 24.831C22.6453 25.4151 22.5245 25.9944 22.2795 26.5248C22.0529 26.9874 21.7212 27.3906 21.3109 27.7021C20.8884 28.0101 20.4131 28.238 19.9084 28.3745C19.385 28.5192 18.8443 28.592 18.3012 28.5906H12.3389V15.642H18.128ZM17.784 20.8792C18.2086 20.8967 18.6265 20.7696 18.9695 20.5187C19.1338 20.3725 19.2615 20.1898 19.3426 19.9854C19.4237 19.781 19.4558 19.5604 19.4365 19.3414C19.4475 19.0855 19.3965 18.8308 19.288 18.5989C19.1959 18.4142 19.0527 18.2599 18.8754 18.1542C18.6959 18.0379 18.4942 17.9601 18.2831 17.9257C18.054 17.8813 17.8209 17.8611 17.5876 17.8654H15.04V20.8908H17.784V20.8792ZM17.9325 26.3919C18.1892 26.3954 18.4455 26.3677 18.6956 26.3094C18.9242 26.259 19.1409 26.1652 19.3342 26.0331C19.5235 25.9011 19.6764 25.7234 19.7788 25.5166C19.8976 25.2529 19.9522 24.9648 19.9381 24.6759C19.9638 24.4127 19.9289 24.147 19.8361 23.8993C19.7433 23.6516 19.595 23.4285 19.4026 23.247C18.9948 22.9466 18.4951 22.7978 17.9894 22.8262H15.04V26.3919H17.9325Z" fill="black"/>
<path fill-rule="evenodd" clip-rule="evenodd" d="M26.4796 26.3441C26.6916 26.5406 26.9414 26.692 27.2137 26.789C27.486 26.886 27.7751 26.9266 28.0636 26.9084C28.521 26.92 28.9694 26.7808 29.3399 26.5124C29.6413 26.3164 29.8696 26.0264 29.9892 25.6874H32.1433C31.9138 26.6525 31.3533 27.5067 30.5593 28.1014C29.7976 28.607 28.8974 28.863 27.9836 28.834C27.3314 28.8425 26.6842 28.7199 26.0803 28.4735C25.534 28.2456 25.0441 27.9013 24.6448 27.4645C24.2469 27.0067 23.9413 26.4764 23.7447 25.9027C23.524 25.2614 23.416 24.5868 23.4254 23.9087C23.4214 23.2419 23.533 22.5795 23.7554 21.9509C24.0542 21.0666 24.6254 20.2996 25.3871 19.7601C26.1488 19.2206 27.0618 18.9362 27.9952 18.9479C28.6842 18.9334 29.3657 19.0947 29.9752 19.4165C30.5262 19.7186 31.0015 20.1417 31.3653 20.654C31.7376 21.1915 32.0044 21.7948 32.1516 22.4319C32.313 23.116 32.3706 23.8204 32.3224 24.5216H25.9062C25.8542 25.1804 26.0598 25.8337 26.4796 26.3441ZM29.2946 21.4196C29.115 21.24 28.8991 21.101 28.6612 21.0119C28.4234 20.9228 28.1693 20.8857 27.916 20.9031C27.5798 20.8903 27.2462 20.9648 26.9474 21.1193C26.7105 21.2497 26.5015 21.4251 26.3319 21.6357C26.1817 21.8332 26.0698 22.0571 26.0019 22.2958C25.9408 22.4948 25.9026 22.7002 25.8881 22.9079H29.8622C29.8275 22.3664 29.6303 21.848 29.2962 21.4204L29.2946 21.4196Z" fill="black"/>
<path d="M25.3757 16.5066H30.3555V17.7796H25.3757V16.5066Z" fill="black"/>
</svg>
