<svg width="45" height="45" viewBox="0 0 45 45" fill="none" xmlns="http://www.w3.org/2000/svg">
<rect x="0.776367" y="0.311523" width="43.854" height="43.854" rx="21.927" fill="white"/>
<path d="M32.5702 22.2387C32.5702 16.8118 28.13 12.3716 22.7031 12.3716C17.2762 12.3716 12.8359 16.8118 12.8359 22.2387C12.8359 27.1723 16.4128 31.2425 21.0997 31.9825V25.0755H18.6329V22.2387H21.0997V20.0186C21.0997 17.5518 22.5798 16.1951 24.7999 16.1951C25.9099 16.1951 27.02 16.4418 27.02 16.4418V18.9086H25.7866C24.5532 18.9086 24.1832 19.6486 24.1832 20.3886V22.2387H26.8966L26.4033 25.0755H24.0598V32.1059C28.9934 31.3659 32.5702 27.1723 32.5702 22.2387Z" fill="#0C1518"/>
</svg>
