<svg width="44" height="45" viewBox="0 0 44 45" fill="none" xmlns="http://www.w3.org/2000/svg">
<rect x="0.141602" y="0.311523" width="43.854" height="43.854" rx="21.927" fill="white"/>
<path d="M22.0683 14.1546C24.6837 14.1546 25.0404 14.1546 26.1103 14.1546C27.0613 14.1546 27.5369 14.3923 27.8935 14.5112C28.369 14.749 28.7257 14.8678 29.0823 15.2245C29.439 15.5811 29.6767 15.9378 29.7956 16.4133C29.9145 16.7699 30.0334 17.2455 30.1523 18.1965C30.1523 19.2665 30.1523 19.5042 30.1523 22.2385C30.1523 24.9728 30.1523 25.2105 30.1523 26.2805C30.1523 27.2315 29.9145 27.707 29.7956 28.0637C29.5579 28.5392 29.439 28.8958 29.0823 29.2525C28.7257 29.6091 28.369 29.8469 27.8935 29.9658C27.5369 30.0847 27.0613 30.2035 26.1103 30.3224C25.0404 30.3224 24.8026 30.3224 22.0683 30.3224C19.3341 30.3224 19.0963 30.3224 18.0264 30.3224C17.0753 30.3224 16.5998 30.0847 16.2431 29.9658C15.7676 29.728 15.411 29.6091 15.0543 29.2525C14.6977 28.8958 14.4599 28.5392 14.341 28.0637C14.2222 27.707 14.1033 27.2315 13.9844 26.2805C13.9844 25.2105 13.9844 24.9728 13.9844 22.2385C13.9844 19.5042 13.9844 19.2665 13.9844 18.1965C13.9844 17.2455 14.2222 16.7699 14.341 16.4133C14.5788 15.9378 14.6977 15.5811 15.0543 15.2245C15.411 14.8678 15.7676 14.6301 16.2431 14.5112C16.5998 14.3923 17.0753 14.2734 18.0264 14.1546C19.0963 14.1546 19.4529 14.1546 22.0683 14.1546ZM22.0683 12.3713C19.3341 12.3713 19.0963 12.3713 18.0264 12.3713C16.9564 12.3713 16.2431 12.6091 15.6487 12.8469C15.0543 13.0846 14.4599 13.4413 13.8655 14.0357C13.2711 14.6301 13.0333 15.1056 12.6767 15.8189C12.4389 16.4133 12.3201 17.1266 12.2012 18.1965C12.2012 19.2665 12.2012 19.6231 12.2012 22.2385C12.2012 24.9728 12.2012 25.2105 12.2012 26.2805C12.2012 27.3504 12.4389 28.0637 12.6767 28.6581C12.9145 29.2525 13.2711 29.8469 13.8655 30.4413C14.4599 31.0357 14.9354 31.2735 15.6487 31.6301C16.2431 31.8679 16.9564 31.9868 18.0264 32.1056C19.0963 32.1056 19.4529 32.1056 22.0683 32.1056C24.6837 32.1056 25.0404 32.1056 26.1103 32.1056C27.1802 32.1056 27.8935 31.8679 28.4879 31.6301C29.0823 31.3924 29.6767 31.0357 30.2711 30.4413C30.8655 29.8469 31.1033 29.3714 31.46 28.6581C31.6977 28.0637 31.8166 27.3504 31.9355 26.2805C31.9355 25.2105 31.9355 24.8539 31.9355 22.2385C31.9355 19.6231 31.9355 19.2665 31.9355 18.1965C31.9355 17.1266 31.6977 16.4133 31.46 15.8189C31.2222 15.2245 30.8655 14.6301 30.2711 14.0357C29.6767 13.4413 29.2012 13.2035 28.4879 12.8469C27.8935 12.6091 27.1802 12.4902 26.1103 12.3713C25.0404 12.3713 24.8026 12.3713 22.0683 12.3713Z" fill="#0C1518"/>
<path d="M22.0683 17.1266C19.2152 17.1266 16.9564 19.3853 16.9564 22.2385C16.9564 25.0916 19.2152 27.3504 22.0683 27.3504C24.9215 27.3504 27.1802 25.0916 27.1802 22.2385C27.1802 19.3853 24.9215 17.1266 22.0683 17.1266ZM22.0683 25.5672C20.2851 25.5672 18.7396 24.1406 18.7396 22.2385C18.7396 20.4553 20.1662 18.9098 22.0683 18.9098C23.8515 18.9098 25.397 20.3364 25.397 22.2385C25.397 24.0217 23.8515 25.5672 22.0683 25.5672Z" fill="#0C1518"/>
<path d="M27.2991 18.1965C27.9557 18.1965 28.4879 17.6643 28.4879 17.0077C28.4879 16.3511 27.9557 15.8189 27.2991 15.8189C26.6425 15.8189 26.1103 16.3511 26.1103 17.0077C26.1103 17.6643 26.6425 18.1965 27.2991 18.1965Z" fill="#0C1518"/>
</svg>
