<svg width="45" height="45" viewBox="0 0 45 45" fill="none" xmlns="http://www.w3.org/2000/svg">
<rect x="0.412109" y="0.311523" width="43.854" height="43.854" rx="21.927" fill="white"/>
<path d="M22.3347 12.2385C16.8062 12.2385 12.3389 16.714 12.3389 22.2344C12.3389 26.4713 14.9715 30.0913 18.6902 31.5474C18.5997 30.7576 18.5256 29.54 18.7231 28.6762C18.9041 27.8946 19.8913 23.7071 19.8913 23.7071C19.8913 23.7071 19.5951 23.1065 19.5951 22.2262C19.5951 20.8358 20.4014 19.7992 21.4051 19.7992C22.2607 19.7992 22.6721 20.4409 22.6721 21.206C22.6721 22.0616 22.1291 23.3451 21.8411 24.538C21.6025 25.5335 22.343 26.3479 23.322 26.3479C25.099 26.3479 26.4647 24.4722 26.4647 21.7737C26.4647 19.3796 24.7453 17.7095 22.2854 17.7095C19.4388 17.7095 17.7687 19.8403 17.7687 22.0452C17.7687 22.9008 18.0978 23.8222 18.5092 24.3241C18.5914 24.4228 18.5997 24.5133 18.575 24.612C18.5009 24.9247 18.3282 25.6075 18.2953 25.7474C18.2541 25.9284 18.1472 25.9695 17.9579 25.879C16.7239 25.2866 15.9505 23.4602 15.9505 21.9958C15.9505 18.8449 18.2377 15.9489 22.5569 15.9489C26.0205 15.9489 28.719 18.417 28.719 21.7243C28.719 25.1715 26.547 27.944 23.5359 27.944C22.524 27.944 21.5696 27.4175 21.2488 26.7922C21.2488 26.7922 20.7469 28.7009 20.6235 29.1698C20.4014 30.0419 19.7926 31.1279 19.3812 31.7943C20.3191 32.0822 21.3064 32.2385 22.343 32.2385C27.8633 32.2385 32.3389 27.763 32.3389 22.2426C32.3306 16.714 27.8551 12.2385 22.3347 12.2385Z" fill="black"/>
</svg>
