<svg width="45" height="45" viewBox="0 0 45 45" fill="none" xmlns="http://www.w3.org/2000/svg">
<rect x="0.412109" y="0.311523" width="43.854" height="43.854" rx="21.927" fill="white"/>
<path d="M13.6102 21.0955C19.0434 18.7747 22.6664 17.2447 24.4791 16.5055C29.655 14.3949 30.7305 14.0282 31.4314 14.016C31.5856 14.0135 31.9304 14.0509 32.1537 14.2286C32.3422 14.3786 32.3941 14.5812 32.4189 14.7234C32.4437 14.8656 32.4746 15.1896 32.4501 15.4427C32.1696 18.332 30.956 25.3436 30.3385 28.5796C30.0773 29.9489 29.5628 30.408 29.0648 30.453C27.9825 30.5506 27.1607 29.7517 26.1124 29.078C24.472 28.0238 23.5454 27.3676 21.9531 26.3389C20.113 25.15 21.3059 24.4966 22.3545 23.4288C22.629 23.1493 27.3977 18.8968 27.49 18.511C27.5015 18.4628 27.5122 18.2829 27.4033 18.188C27.2943 18.093 27.1334 18.1255 27.0174 18.1513C26.8529 18.1879 24.2324 19.886 19.156 23.2456C18.4122 23.7463 17.7384 23.9903 17.1348 23.9775C16.4694 23.9634 15.1893 23.6087 14.2377 23.3054C13.0705 22.9334 12.1429 22.7368 12.2237 22.105C12.2657 21.776 12.7279 21.4395 13.6102 21.0955Z" fill="#0C1518"/>
</svg>
