<svg width="49" height="49" viewBox="0 0 49 49" fill="none" xmlns="http://www.w3.org/2000/svg">
<rect x="2.95898" y="2.31152" width="43.854" height="43.854" rx="21.927" fill="white"/>
<path d="M29.0689 14.6863H25.1761V28.1255C25.1761 29.7268 23.6789 31.0422 21.8157 31.0422C19.9525 31.0422 18.4553 29.7268 18.4553 28.1255C18.4553 26.5529 19.9192 25.2661 21.7159 25.2089V21.8348C17.7566 21.892 14.5625 24.6657 14.5625 28.1255C14.5625 31.6141 17.8231 34.4163 21.849 34.4163C25.8748 34.4163 29.1354 31.5855 29.1354 28.1255V21.2343C30.5994 22.1494 32.396 22.6927 34.2925 22.7213V19.3471C31.3646 19.2614 29.0689 17.2026 29.0689 14.6863Z" fill="black"/>
</svg>
