<svg width="45" height="45" viewBox="0 0 45 45" fill="none" xmlns="http://www.w3.org/2000/svg">
<rect x="0.59375" y="0.311523" width="43.854" height="43.854" rx="21.927" fill="white"/>
<path d="M29.3922 15.2786C31.2423 17.1287 32.3876 19.5515 32.3876 22.1944C32.3876 27.5685 27.8945 31.9735 22.4764 31.9735C20.8466 31.9735 19.2608 31.533 17.8071 30.7842L12.6533 32.1056L14.0189 27.0399C13.1819 25.5863 12.6974 23.9124 12.6974 22.1504C12.6974 16.7763 17.1023 12.3713 22.4764 12.3713C25.1194 12.3713 27.5862 13.4285 29.3922 15.2786ZM22.4764 30.2996C26.9695 30.2996 30.7137 26.6435 30.7137 22.1944C30.7137 19.992 29.7887 17.9657 28.2469 16.4239C26.7052 14.8822 24.6789 14.0452 22.5205 14.0452C18.0274 14.0452 14.3713 17.7014 14.3713 22.1504C14.3713 23.6921 14.8118 25.1898 15.6047 26.5113L15.8249 26.8197L14.988 29.8151L18.0714 28.9781L18.3357 29.1543C19.6132 29.9032 21.0228 30.2996 22.4764 30.2996ZM26.9695 24.2207C27.1898 24.3529 27.366 24.3969 27.41 24.5291C27.4981 24.6172 27.4981 25.1017 27.2779 25.6744C27.0576 26.247 26.0885 26.7756 25.648 26.8197C24.8551 26.9518 24.2384 26.9078 22.6967 26.203C20.2299 25.1458 18.6441 22.679 18.5119 22.5468C18.3798 22.3706 17.5428 21.2253 17.5428 19.992C17.5428 18.8026 18.1595 18.23 18.3798 17.9657C18.6 17.7014 18.8643 17.6573 19.0405 17.6573C19.1727 17.6573 19.3489 17.6573 19.481 17.6573C19.6572 17.6573 19.8334 17.6133 20.0537 18.0978C20.2299 18.5824 20.7585 19.7717 20.8025 19.9039C20.8466 20.036 20.8906 20.1682 20.8025 20.3444C20.362 21.2694 19.8334 21.2253 20.0977 21.6658C21.0668 23.2957 21.9919 23.8683 23.4455 24.5731C23.6658 24.7053 23.7979 24.6612 23.9741 24.5291C24.1063 24.3529 24.5908 23.7802 24.723 23.56C24.8992 23.2957 25.0754 23.3397 25.2956 23.4278C25.5159 23.5159 26.7052 24.0886 26.9695 24.2207Z" fill="black"/>
</svg>
