<svg width="44" height="45" viewBox="0 0 44 45" fill="none" xmlns="http://www.w3.org/2000/svg">
<rect y="0.817505" width="43.854" height="43.854" rx="21.927" fill="white"/>
<path fill-rule="evenodd" clip-rule="evenodd" d="M17.7159 16.148C18.2563 16.138 18.7959 16.1934 19.323 16.313C19.7668 16.4099 20.1881 16.5902 20.5646 16.8443C20.9124 17.097 21.1875 17.4367 21.3624 17.8294C21.5635 18.3122 21.6605 18.832 21.6471 19.3548C21.6699 19.9289 21.5233 20.497 21.2255 20.9884C20.9122 21.4524 20.4792 21.823 19.9723 22.0609C20.6601 22.2463 21.2593 22.6711 21.6619 23.2588C22.0485 23.8815 22.2427 24.6044 22.2205 25.337C22.2332 25.9211 22.1124 26.5004 21.8673 27.0308C21.6408 27.4934 21.3091 27.8966 20.8988 28.2081C20.4763 28.5161 20.001 28.744 19.4963 28.8804C18.9729 29.0252 18.4322 29.0979 17.8891 29.0966H11.9268V16.148H17.7159ZM17.3718 21.3852C17.7964 21.4027 18.2144 21.2756 18.5574 21.0247C18.7216 20.8784 18.8494 20.6958 18.9305 20.4914C19.0116 20.287 19.0437 20.0664 19.0243 19.8474C19.0353 19.5915 18.9844 19.3368 18.8758 19.1049C18.7838 18.9202 18.6406 18.7658 18.4633 18.6602C18.2838 18.5439 18.0821 18.466 17.871 18.4316C17.6419 18.3873 17.4088 18.3671 17.1755 18.3714H14.6279V21.3967H17.3718V21.3852ZM17.5203 26.8979C17.7771 26.9014 18.0334 26.8737 18.2835 26.8154C18.512 26.765 18.7288 26.6711 18.922 26.539C19.1114 26.407 19.2643 26.2294 19.3667 26.0226C19.4855 25.7589 19.5401 25.4708 19.526 25.1819C19.5517 24.9187 19.5168 24.653 19.424 24.4053C19.3312 24.1576 19.1829 23.9345 18.9905 23.753C18.5827 23.4526 18.083 23.3038 17.5773 23.3322H14.6279V26.8979H17.5203Z" fill="black"/>
<path fill-rule="evenodd" clip-rule="evenodd" d="M26.0675 26.8501C26.2795 27.0466 26.5292 27.1979 26.8015 27.2949C27.0738 27.392 27.363 27.4326 27.6515 27.4144C28.1089 27.4259 28.5573 27.2868 28.9278 27.0184C29.2292 26.8224 29.4575 26.5324 29.5771 26.1934H31.7312C31.5017 27.1585 30.9412 28.0127 30.1472 28.6074C29.3855 29.1129 28.4853 29.369 27.5715 29.34C26.9193 29.3485 26.2721 29.2259 25.6682 28.9794C25.1219 28.7516 24.632 28.4073 24.2327 27.9704C23.8348 27.5127 23.5292 26.9824 23.3326 26.4087C23.1119 25.7674 23.0039 25.0928 23.0133 24.4146C23.0093 23.7479 23.1209 23.0855 23.3433 22.4569C23.642 21.5726 24.2133 20.8056 24.975 20.2661C25.7367 19.7266 26.6497 19.4422 27.583 19.4538C28.2721 19.4394 28.9535 19.6007 29.5631 19.9224C30.114 20.2246 30.5893 20.6477 30.9532 21.16C31.3254 21.6975 31.5923 22.3008 31.7395 22.9379C31.9009 23.6219 31.9585 24.3264 31.9102 25.0276H25.4941C25.4421 25.6864 25.6477 26.3397 26.0675 26.8501ZM28.8824 21.9256C28.7029 21.746 28.4869 21.607 28.2491 21.5179C28.0113 21.4288 27.7572 21.3917 27.5038 21.4091C27.1677 21.3963 26.834 21.4708 26.5353 21.6253C26.2984 21.7557 26.0893 21.9311 25.9198 22.1417C25.7696 22.3392 25.6576 22.5631 25.5898 22.8017C25.5287 23.0008 25.4905 23.2062 25.476 23.4139H29.4501C29.4154 22.8724 29.2182 22.354 28.8841 21.9264L28.8824 21.9256Z" fill="black"/>
<path d="M24.9636 17.0126H29.9434V18.2856H24.9636V17.0126Z" fill="black"/>
</svg>
