<svg width="44" height="45" viewBox="0 0 44 45" fill="none" xmlns="http://www.w3.org/2000/svg">
<rect y="0.63501" width="43.854" height="43.854" rx="21.927" fill="white"/>
<path d="M31.7939 22.5622C31.7939 17.1352 27.3537 12.695 21.9267 12.695C16.4998 12.695 12.0596 17.1352 12.0596 22.5622C12.0596 27.4957 15.6364 31.5659 20.3233 32.306V25.399H17.8565V22.5622H20.3233V20.3421C20.3233 17.8753 21.8034 16.5185 24.0235 16.5185C25.1335 16.5185 26.2436 16.7652 26.2436 16.7652V19.232H25.0102C23.7768 19.232 23.4068 19.972 23.4068 20.7121V22.5622H26.1203L25.6269 25.399H23.2835V32.4293C28.217 31.6893 31.7939 27.4957 31.7939 22.5622Z" fill="#0C1518"/>
</svg>
