<svg width="44" height="44" viewBox="0 0 44 44" fill="none" xmlns="http://www.w3.org/2000/svg">
<rect width="43.854" height="43.854" rx="21.927" fill="white"/>
<path d="M21.9267 13.8432C24.5421 13.8432 24.8988 13.8432 25.9687 13.8432C26.9197 13.8432 27.3953 14.0809 27.7519 14.1998C28.2274 14.4376 28.5841 14.5564 28.9407 14.9131C29.2974 15.2697 29.5351 15.6264 29.654 16.1019C29.7729 16.4585 29.8918 16.9341 30.0107 17.8851C30.0107 18.9551 30.0107 19.1928 30.0107 21.9271C30.0107 24.6614 30.0107 24.8991 30.0107 25.9691C30.0107 26.9201 29.7729 27.3956 29.654 27.7523C29.4163 28.2278 29.2974 28.5844 28.9407 28.9411C28.5841 29.2977 28.2274 29.5355 27.7519 29.6544C27.3953 29.7733 26.9197 29.8921 25.9687 30.011C24.8988 30.011 24.661 30.011 21.9267 30.011C19.1925 30.011 18.9547 30.011 17.8848 30.011C16.9337 30.011 16.4582 29.7733 16.1015 29.6544C15.626 29.4166 15.2694 29.2977 14.9127 28.9411C14.5561 28.5844 14.3183 28.2278 14.1994 27.7523C14.0806 27.3956 13.9617 26.9201 13.8428 25.9691C13.8428 24.8991 13.8428 24.6614 13.8428 21.9271C13.8428 19.1928 13.8428 18.9551 13.8428 17.8851C13.8428 16.9341 14.0806 16.4585 14.1994 16.1019C14.4372 15.6264 14.5561 15.2697 14.9127 14.9131C15.2694 14.5564 15.626 14.3187 16.1015 14.1998C16.4582 14.0809 16.9337 13.962 17.8848 13.8432C18.9547 13.8432 19.3113 13.8432 21.9267 13.8432ZM21.9267 12.0599C19.1925 12.0599 18.9547 12.0599 17.8848 12.0599C16.8148 12.0599 16.1015 12.2977 15.5071 12.5355C14.9127 12.7732 14.3183 13.1299 13.7239 13.7243C13.1295 14.3187 12.8917 14.7942 12.5351 15.5075C12.2973 16.1019 12.1785 16.8152 12.0596 17.8851C12.0596 18.9551 12.0596 19.3117 12.0596 21.9271C12.0596 24.6614 12.0596 24.8991 12.0596 25.9691C12.0596 27.039 12.2973 27.7523 12.5351 28.3467C12.7729 28.9411 13.1295 29.5355 13.7239 30.1299C14.3183 30.7243 14.7938 30.9621 15.5071 31.3187C16.1015 31.5565 16.8148 31.6754 17.8848 31.7942C18.9547 31.7942 19.3113 31.7942 21.9267 31.7942C24.5421 31.7942 24.8988 31.7942 25.9687 31.7942C27.0386 31.7942 27.7519 31.5565 28.3463 31.3187C28.9407 31.081 29.5351 30.7243 30.1295 30.1299C30.7239 29.5355 30.9617 29.06 31.3184 28.3467C31.5561 27.7523 31.675 27.039 31.7939 25.9691C31.7939 24.8991 31.7939 24.5425 31.7939 21.9271C31.7939 19.3117 31.7939 18.9551 31.7939 17.8851C31.7939 16.8152 31.5561 16.1019 31.3184 15.5075C31.0806 14.9131 30.7239 14.3187 30.1295 13.7243C29.5351 13.1299 29.0596 12.8921 28.3463 12.5355C27.7519 12.2977 27.0386 12.1788 25.9687 12.0599C24.8988 12.0599 24.661 12.0599 21.9267 12.0599Z" fill="#0C1518"/>
<path d="M21.9267 16.8152C19.0736 16.8152 16.8148 19.0739 16.8148 21.9271C16.8148 24.7802 19.0736 27.039 21.9267 27.039C24.7799 27.039 27.0386 24.7802 27.0386 21.9271C27.0386 19.0739 24.7799 16.8152 21.9267 16.8152ZM21.9267 25.2558C20.1435 25.2558 18.598 23.8292 18.598 21.9271C18.598 20.1439 20.0246 18.5984 21.9267 18.5984C23.7099 18.5984 25.2554 20.025 25.2554 21.9271C25.2554 23.7103 23.7099 25.2558 21.9267 25.2558Z" fill="#0C1518"/>
<path d="M27.1575 17.8851C27.8141 17.8851 28.3463 17.3529 28.3463 16.6963C28.3463 16.0397 27.8141 15.5075 27.1575 15.5075C26.5009 15.5075 25.9687 16.0397 25.9687 16.6963C25.9687 17.3529 26.5009 17.8851 27.1575 17.8851Z" fill="#0C1518"/>
</svg>
