<svg width="21" height="20" viewBox="0 0 21 20" fill="none" xmlns="http://www.w3.org/2000/svg">
<path d="M10.8768 1.26062C9.0391 1.26267 7.27732 1.95269 5.97789 3.17932C4.67846 4.40595 3.94749 6.06904 3.94532 7.80376C3.94312 9.22137 4.43366 10.6005 5.34169 11.7296C5.34169 11.7296 5.53073 11.9646 5.56161 11.9985L10.8768 17.9159L16.1945 11.9955C16.2222 11.964 16.4119 11.7296 16.4119 11.7296L16.4125 11.7279C17.3201 10.5992 17.8104 9.22072 17.8082 7.80376C17.8061 6.06904 17.0751 4.40595 15.7757 3.17932C14.4762 1.95269 12.7144 1.26267 10.8768 1.26062ZM10.8768 10.1831C10.3783 10.1831 9.89094 10.0435 9.47644 9.78209C9.06194 9.52065 8.73888 9.14905 8.54811 8.71428C8.35733 8.27952 8.30742 7.80112 8.40467 7.33957C8.50193 6.87803 8.74199 6.45407 9.09449 6.12132C9.44699 5.78857 9.89611 5.56196 10.385 5.47015C10.874 5.37835 11.3808 5.42546 11.8413 5.60555C12.3019 5.78563 12.6956 6.0906 12.9725 6.48188C13.2495 6.87315 13.3973 7.33317 13.3973 7.80376C13.3965 8.43455 13.1306 9.03928 12.6581 9.48532C12.1856 9.93136 11.545 10.1823 10.8768 10.1831Z" fill="white"/>
</svg>
