<svg width="21" height="20" viewBox="0 0 21 20" fill="none" xmlns="http://www.w3.org/2000/svg">
<path d="M17.5967 9.41452H19.277C19.277 5.34588 16.023 2.27734 11.707 2.27734V3.86356C15.1198 3.86356 17.5967 6.19767 17.5967 9.41452Z" fill="white"/>
<path d="M11.7184 7.03597C13.4853 7.03597 14.2389 7.74739 14.2389 9.4153H15.9193C15.9193 6.85753 14.428 5.44976 11.7184 5.44976V7.03597ZM14.5935 11.3529C14.432 11.2143 14.2199 11.1405 14.0018 11.1468C13.7838 11.1532 13.5769 11.2393 13.4248 11.387L11.4143 13.3388C10.9303 13.2516 9.95739 12.9652 8.9559 12.0222C7.95441 11.0761 7.65111 10.1553 7.56121 9.70161L9.6272 7.80291C9.78382 7.65946 9.87517 7.46411 9.88191 7.25821C9.88866 7.05231 9.81027 6.85201 9.66333 6.6997L6.55888 3.4773C6.41189 3.32452 6.20759 3.23184 5.98937 3.21896C5.77116 3.20607 5.55621 3.274 5.3902 3.4083L3.56702 4.88427C3.42176 5.02189 3.33506 5.20505 3.32336 5.399C3.31076 5.59728 3.07047 10.2941 6.92856 13.9376C10.2943 17.114 14.5103 17.3464 15.6714 17.3464C15.8411 17.3464 15.9453 17.3416 15.9731 17.34C16.1785 17.3292 16.3724 17.247 16.5175 17.1092L18.0802 15.3874C18.2226 15.2308 18.2947 15.0279 18.2812 14.8219C18.2677 14.616 18.1697 14.423 18.008 14.2842L14.5935 11.3529Z" fill="white"/>
</svg>
