<svg width="44" height="44" viewBox="0 0 44 44" fill="none" xmlns="http://www.w3.org/2000/svg">
<rect width="43.854" height="43.854" rx="21.927" fill="white"/>
<path d="M21.9226 11.927C16.3941 11.927 11.9268 16.4025 11.9268 21.9229C11.9268 26.1598 14.5594 29.7797 18.2781 31.2359C18.1876 30.4461 18.1135 29.2285 18.311 28.3647C18.492 27.5831 19.4792 23.3955 19.4792 23.3955C19.4792 23.3955 19.183 22.795 19.183 21.9147C19.183 20.5243 19.9893 19.4877 20.993 19.4877C21.8486 19.4877 22.26 20.1294 22.26 20.8945C22.26 21.7501 21.717 23.0335 21.429 24.2265C21.1904 25.2219 21.9309 26.0364 22.9099 26.0364C24.6869 26.0364 26.0526 24.1606 26.0526 21.4622C26.0526 19.0681 24.3332 17.398 21.8733 17.398C19.0267 17.398 17.3566 19.5288 17.3566 21.7337C17.3566 22.5893 17.6857 23.5107 18.0971 24.0126C18.1793 24.1113 18.1876 24.2018 18.1629 24.3005C18.0888 24.6131 17.9161 25.296 17.8832 25.4358C17.842 25.6168 17.7351 25.658 17.5458 25.5675C16.3118 24.9751 15.5384 23.1487 15.5384 21.6843C15.5384 18.5333 17.8256 15.6374 22.1448 15.6374C25.6084 15.6374 28.3069 18.1055 28.3069 21.4128C28.3069 24.8599 26.1349 27.6325 23.1238 27.6325C22.1119 27.6325 21.1575 27.1059 20.8367 26.4807C20.8367 26.4807 20.3348 28.3894 20.2114 28.8583C19.9893 29.7304 19.3805 30.8163 18.9691 31.4827C19.907 31.7707 20.8943 31.927 21.9309 31.927C27.4512 31.927 31.9268 27.4515 31.9268 21.9311C31.9185 16.4025 27.443 11.927 21.9226 11.927Z" fill="black"/>
</svg>
