<svg width="44" height="45" viewBox="0 0 44 45" fill="none" xmlns="http://www.w3.org/2000/svg">
<rect y="0.27005" width="43.854" height="43.854" rx="21.927" fill="white"/>
<path d="M13.1981 21.0541C18.6313 18.7333 22.2543 17.2033 24.067 16.4641C29.2429 14.3534 30.3183 13.9868 31.0193 13.9745C31.1735 13.972 31.5182 14.0095 31.7415 14.1871C31.9301 14.3371 31.982 14.5397 32.0068 14.682C32.0316 14.8242 32.0625 15.1481 32.038 15.4013C31.7575 18.2906 30.5438 25.3021 29.9264 28.5382C29.6652 29.9075 29.1507 30.3666 28.6527 30.4115C27.5704 30.5092 26.7485 29.7103 25.7003 29.0366C24.0599 27.9824 23.1332 27.3261 21.541 26.2974C19.7009 25.1086 20.8938 24.4552 21.9424 23.3873C22.2169 23.1079 26.9856 18.8553 27.0779 18.4696C27.0894 18.4213 27.1001 18.2415 26.9912 18.1465C26.8822 18.0515 26.7213 18.084 26.6053 18.1098C26.4408 18.1465 23.8203 19.8446 18.7439 23.2041C18.0001 23.7049 17.3263 23.9489 16.7227 23.9361C16.0573 23.922 14.7772 23.5672 13.8256 23.2639C12.6584 22.892 11.7308 22.6953 11.8115 22.0636C11.8536 21.7346 12.3158 21.398 13.1981 21.0541Z" fill="#0C1518"/>
</svg>
