<svg width="49" height="49" viewBox="0 0 49 49" fill="none" xmlns="http://www.w3.org/2000/svg">
<rect x="3" y="2.8175" width="43.854" height="43.854" rx="21.927" fill="white"/>
<path d="M29.1109 15.1923H25.2181V28.6315C25.2181 30.2328 23.7209 31.5482 21.8577 31.5482C19.9945 31.5482 18.4973 30.2328 18.4973 28.6315C18.4973 27.0589 19.9612 25.7721 21.7579 25.7149V22.3408C17.7986 22.398 14.6045 25.1716 14.6045 28.6315C14.6045 32.1201 17.8651 34.9223 21.891 34.9223C25.9168 34.9223 29.1774 32.0914 29.1774 28.6315V21.7403C30.6414 22.6554 32.438 23.1986 34.3345 23.2272V19.8531C31.4066 19.7673 29.1109 17.7085 29.1109 15.1923Z" fill="black"/>
</svg>
