<svg width="44" height="45" viewBox="0 0 44 45" fill="none" xmlns="http://www.w3.org/2000/svg">
<rect y="0.452545" width="43.854" height="43.854" rx="21.927" fill="white"/>
<path d="M28.7985 15.4197C30.6486 17.2698 31.7939 19.6925 31.7939 22.3355C31.7939 27.7096 27.3008 32.1145 21.8827 32.1145C20.2528 32.1145 18.667 31.674 17.2134 30.9252L12.0596 32.2467L13.4251 27.181C12.5882 25.7273 12.1036 24.0534 12.1036 22.2914C12.1036 16.9174 16.5086 12.5124 21.8827 12.5124C24.5257 12.5124 26.9924 13.5696 28.7985 15.4197ZM21.8827 30.4407C26.3758 30.4407 30.12 26.7845 30.12 22.3355C30.12 20.133 29.1949 18.1067 27.6532 16.565C26.1115 15.0232 24.0852 14.1863 21.9267 14.1863C17.4336 14.1863 13.7775 17.8424 13.7775 22.2914C13.7775 23.8332 14.218 25.3309 15.0109 26.6524L15.2312 26.9607L14.3942 29.9561L17.4777 29.1192L17.742 29.2954C19.0194 30.0442 20.429 30.4407 21.8827 30.4407ZM26.3758 24.3618C26.596 24.4939 26.7722 24.538 26.8163 24.6701C26.9044 24.7582 26.9044 25.2428 26.6841 25.8154C26.4639 26.3881 25.4948 26.9167 25.0543 26.9607C24.2614 27.0929 23.6447 27.0488 22.1029 26.344C19.6361 25.2868 18.0503 22.82 17.9182 22.6879C17.786 22.5117 16.9491 21.3664 16.9491 20.133C16.9491 18.9437 17.5658 18.371 17.786 18.1067C18.0063 17.8424 18.2706 17.7984 18.4468 17.7984C18.5789 17.7984 18.7551 17.7984 18.8873 17.7984C19.0635 17.7984 19.2397 17.7543 19.4599 18.2389C19.6361 18.7234 20.1647 19.9128 20.2088 20.0449C20.2528 20.1771 20.2969 20.3092 20.2088 20.4854C19.7683 21.4104 19.2397 21.3664 19.504 21.8069C20.4731 23.4367 21.3981 24.0094 22.8518 24.7142C23.072 24.8463 23.2042 24.8023 23.3804 24.6701C23.5125 24.4939 23.9971 23.9213 24.1292 23.701C24.3054 23.4367 24.4816 23.4808 24.7019 23.5689C24.9221 23.657 26.1115 24.2296 26.3758 24.3618Z" fill="black"/>
</svg>
